<?xml version="1.0" encoding="utf-8"?>
<!-- Generator: Adobe Illustrator 18.1.1, SVG Export Plug-In . SVG Version: 6.00 Build 0)  -->
<svg version="1.1" id="PRINT" xmlns="http://www.w3.org/2000/svg" xmlns:xlink="http://www.w3.org/1999/xlink" x="0px" y="0px"
	 viewBox="0 0 500 500" enable-background="new 0 0 500 500" xml:space="preserve">
<g>
	
		<linearGradient id="CUSTOM_1_" gradientUnits="userSpaceOnUse" x1="8.5197" y1="252" x2="491.4803" y2="252" gradientTransform="matrix(1 0 0 -1 0 502)">
		<stop  offset="0" style="stop-color:#605DFF"/>
		<stop  offset="1" style="stop-color:#A168FF"/>
	</linearGradient>
	<path id="CUSTOM" fill="url(#CUSTOM_1_)" d="M297.2,416v56.6c0,10.4-8.4,18.9-18.9,18.9h-37.7c-31.2,0-56.6-25.4-56.6-56.6v-9.5
		c0-2.5-1.6-4.8-4-5.8l-0.2-0.1c0,0-0.1,0-0.1,0c-2.5-1-5.2-0.5-6.9,1.2l-6.7,6.7c-22.1,22.1-58,22.1-80,0l-13.3-13.3
		c-10.7-10.7-16.6-24.9-16.6-40s5.9-29.3,16.6-40l6.7-6.7c1.8-1.8,2.3-4.5,1.2-6.9l-0.2-0.4c-1-2.4-3.3-4-5.8-4h-9.5
		c-31.2,0-56.6-25.4-56.6-56.6v-18.9c0-31.2,25.4-56.6,56.6-56.6h9.5c2.5,0,4.8-1.6,5.8-4l0.1-0.3c1-2.5,0.5-5.2-1.2-6.9l-6.7-6.7
		c-10.7-10.7-16.6-24.9-16.6-40s5.9-29.3,16.6-40l13.3-13.3c10.7-10.7,24.9-16.6,40-16.6s29.3,5.9,40,16.6l6.7,6.7
		c1.8,1.8,4.5,2.3,6.9,1.2c0,0,0.1,0,0.1,0l0.3-0.1c2.4-1,4-3.2,4-5.7v-9.5c0-31.2,25.4-56.6,56.6-56.6h37.7
		c10.4,0,18.9,8.4,18.9,18.9V84c0,10.4-8.4,18.9-18.9,18.9c-10.4,0-18.9-8.4-18.9-18.9V46.3h-18.9c-10.4,0-18.9,8.5-18.9,18.9v9.5
		c0,17.8-10.7,33.8-27.3,40.6l-0.3,0.1c-16.6,6.9-35.5,3.2-48.1-9.4l-6.7-6.7c-3.6-3.6-8.3-5.5-13.3-5.5c-5,0-9.8,2-13.3,5.5
		l-13.3,13.3c-3.6,3.6-5.5,8.3-5.5,13.3c0,5,2,9.8,5.5,13.3l6.7,6.7c12.6,12.6,16.3,31.5,9.4,48.1l-0.1,0.3
		c-6.9,16.6-22.8,27.4-40.7,27.4h-9.5c-10.4,0-18.9,8.5-18.9,18.9v18.9c0,10.4,8.5,18.9,18.9,18.9h9.5c17.8,0,33.8,10.7,40.6,27.3
		l0.1,0.3c6.9,16.5,3.2,35.4-9.4,48l-6.7,6.7c-3.6,3.6-5.5,8.3-5.5,13.3c0,5,2,9.8,5.5,13.3l13.3,13.3c7.4,7.4,19.3,7.4,26.7,0
		l6.7-6.7c12.6-12.6,31.5-16.3,48.1-9.4l0.2,0.1c16.7,6.9,27.4,22.8,27.4,40.7v9.5c0,10.4,8.5,18.9,18.9,18.9h18.9V416
		c0-10.4,8.4-18.9,18.9-18.9C288.7,397.2,297.2,405.6,297.2,416z M458.5,217c-11.2,0-21.1,5.6-27.1,14.1H284.6
		c-6-8.5-15.9-14.1-27.1-14.1c-18.2,0-33,14.8-33,33s14.8,33,33,33c11.2,0,21.1-5.6,27.1-14.1h146.7c6,8.5,15.9,14.1,27.1,14.1
		c18.2,0,33-14.8,33-33S476.7,217,458.5,217z M458.5,371.7c-2.4,0-4.6,0.3-6.9,0.7l-45.9-45.3c-3.5-3.5-8.3-5.4-13.2-5.4H250
		c-39.5,0-71.7-32.2-71.7-71.7s32.2-71.7,71.7-71.7h142.4c5,0,9.8-2,13.3-5.5l46.1-46.1c2.1,0.4,4.3,0.7,6.6,0.7
		c18.2,0,33-14.8,33-33c0-18.2-14.8-33-33-33s-33,14.8-33,33c0,1.7,0.1,3.4,0.4,5l-41.2,41.2H250c-60.3,0-109.4,49.1-109.4,109.4
		S189.7,359.4,250,359.4h134.7l41.1,40.5c-0.2,1.6-0.3,3.1-0.3,4.7c0,18.2,14.8,33,33,33s33-14.8,33-33
		C491.5,386.5,476.7,371.7,458.5,371.7z"/>
</g>
</svg>
